<svg display="none" xmlns="http://www.w3.org/2000/svg">
    <symbol class="socials" id="twitter" viewBox="0 0 32 32">
        <g>
            <path opacity=".9"
                  d="M16.15 3.643c.011.16.011.32.011.48C16.161 9 12.45 14.62 5.665 14.62c-2.09 0-4.032-.605-5.665-1.656.297.035.582.046.89.046a7.389 7.389 0 004.58-1.576 3.696 3.696 0 01-3.448-2.559c.228.035.456.057.696.057.332 0 .663-.045.971-.125a3.69 3.69 0 01-2.958-3.62V5.14a3.715 3.715 0 001.667.468A3.687 3.687 0 01.754 2.536c0-.686.182-1.314.502-1.862a10.486 10.486 0 007.607 3.86 4.164 4.164 0 01-.091-.845A3.687 3.687 0 0112.46 0a3.68 3.68 0 012.695 1.165 7.264 7.264 0 002.341-.89 3.68 3.68 0 01-1.621 2.032A7.396 7.396 0 0018 1.737a7.932 7.932 0 01-1.85 1.906z"
                  fill="#FCFCFC"/>
        </g>
    </symbol>
    <symbol class="socials" id="instagram" viewBox="0 0 32 32">
        <g>
            <path opacity=".9"
                  d="M9.002 4.384a4.607 4.607 0 00-4.614 4.614 4.607 4.607 0 004.614 4.614 4.607 4.607 0 004.614-4.614 4.607 4.607 0 00-4.614-4.614zm0 7.614c-1.65 0-3-1.346-3-3s1.346-3 3-3 3 1.346 3 3-1.35 3-3 3zm5.879-7.803c0 .599-.482 1.076-1.076 1.076a1.076 1.076 0 111.076-1.076zm3.056 1.093c-.069-1.442-.398-2.719-1.454-3.771C15.431.465 14.154.136 12.713.063c-1.486-.084-5.94-.084-7.425 0-1.438.069-2.715.398-3.771 1.45S.136 3.842.063 5.283c-.084 1.486-.084 5.94 0 7.425.069 1.442.398 2.719 1.454 3.771s2.329 1.381 3.77 1.454c1.486.084 5.94.084 7.425 0 1.442-.069 2.719-.398 3.771-1.454 1.052-1.052 1.381-2.329 1.454-3.77.084-1.486.084-5.936 0-7.421zm-1.92 9.015a3.037 3.037 0 01-1.71 1.71c-1.185.47-3.996.362-5.305.362-1.31 0-4.124.104-5.305-.362a3.037 3.037 0 01-1.71-1.71c-.47-1.185-.362-3.996-.362-5.305 0-1.31-.104-4.124.362-5.305a3.037 3.037 0 011.71-1.71c1.185-.47 3.996-.362 5.305-.362 1.31 0 4.124-.104 5.305.362.787.313 1.393.92 1.71 1.71.47 1.185.362 3.996.362 5.305 0 1.31.108 4.124-.362 5.305z"
                  fill="#FCFCFC"/>
        </g>
    </symbol>
    <symbol class="socials" id="youtube" viewBox="0 0 32 32">
        <g>
            <path opacity=".9"
                  d="M25.065 2.816A3.217 3.217 0 0022.802.538C20.805 0 12.8 0 12.8 0S4.795 0 2.798.538A3.217 3.217 0 00.535 2.816C0 4.826 0 9.018 0 9.018s0 4.193.535 6.202c.294 1.109 1.162 1.945 2.263 2.242C4.795 18 12.8 18 12.8 18s8.005 0 10.002-.538c1.101-.297 1.969-1.133 2.263-2.242.535-2.01.535-6.202.535-6.202s0-4.192-.535-6.202zM10.182 12.825V5.212l6.69 3.806-6.69 3.807z"
                  fill="#FCFCFC"/>
        </g>
    </symbol>
    <symbol class="socials" id="facebook" viewBox="0 0 32 32">
        <g>
            <path opacity=".9"
                  d="M18 .992v16.012c0 .55-.446.992-.992.992h-4.589v-6.967h2.339l.35-2.716h-2.693V6.577c0-.787.217-1.322 1.346-1.322H15.2v-2.43c-.25-.033-1.101-.109-2.098-.109-2.073 0-3.495 1.266-3.495 3.592v2.005H7.26v2.716h2.347V18H.992A.995.995 0 010 17.008V.992C0 .446.446 0 .992 0h16.012c.55 0 .996.446.996.992z"
                  fill="#FCFCFC"/>
        </g>
    </symbol>
    <symbol class="socials" id="medium" viewBox="0 0 32 32">
        <g>
            <path opacity=".9"
                  d="M2.132 2.914a.703.703 0 00-.227-.588L.227.3V0h5.217l4.034 8.846L13.025 0H18v.301l-1.436 1.377a.419.419 0 00-.16.402v10.122a.419.419 0 00.16.402l1.402 1.377v.301h-7.059v-.301l1.455-1.41c.142-.142.142-.187.142-.402v-8.18L8.459 14.256h-.547L3.208 3.99v6.881c-.041.29.056.58.26.789l1.89 2.292v.302H0v-.298l1.89-2.296a.907.907 0 00.242-.789V2.914z"
                  fill="#FCFCFC"/>
        </g>
    </symbol>
</svg>